<?xml version="1.0" encoding="UTF-8"?>
<svg version="1.1" xmlns="http://www.w3.org/2000/svg" width="910" height="274">
<path d="M0 0 C1.08394043 0.61738037 2.16788086 1.23476074 3.28466797 1.87084961 C11.72105319 6.69015758 20.111824 11.58997412 28.49267578 16.50512695 C35.25036949 20.46563751 42.04719543 24.34926429 48.875 28.1875 C57.75912455 33.18244676 66.57448731 38.28559945 75.3659668 43.44165039 C83.3417087 48.1098531 91.37484138 52.67018563 99.45117188 57.16210938 C114.08060391 65.351586 125.84940483 72.11071448 131.375 88.6875 C132.54826022 107.95974171 132.54826022 107.95974171 127.375 115.6875 C126.72144531 116.72583984 126.72144531 116.72583984 126.0546875 117.78515625 C122.26184725 123.32933531 117.40485155 127.67257423 111.375 130.6875 C106.08195745 131.03458476 102.64141586 131.20101894 98.375 127.6875 C95.80426061 124.25984748 95.94462548 120.84778704 96.375 116.6875 C98.25925718 113.0639285 100.30697805 110.64487474 103.5 108.1875 C106.79800221 105.31967199 107.63539957 103.96074694 108.375 99.6875 C108.23122668 95.49650775 107.70204702 91.66864107 106.375 87.6875 C104.56620733 86.59701207 104.56620733 86.59701207 102.375 85.6875 C100.80864282 84.82440173 99.24788837 83.95109444 97.69140625 83.0703125 C96.77512451 82.55227051 95.85884277 82.03422852 94.91479492 81.50048828 C93.44103394 80.66493408 93.44103394 80.66493408 91.9375 79.8125 C90.91052002 79.23097168 89.88354004 78.64944336 88.82543945 78.05029297 C68.86916448 66.74178827 48.99548773 55.29156179 29.13525391 43.81542969 C28.07612793 43.20344727 27.01700195 42.59146484 25.92578125 41.9609375 C24.86512451 41.34782715 23.80446777 40.7347168 22.71166992 40.10302734 C20.57679192 38.87127333 18.44024174 37.64241282 16.30200195 36.41650391 C11.09915071 33.43165444 5.91439074 30.42357942 0.77438354 27.33192444 C-1.74090394 25.82261108 -4.26606156 24.33029705 -6.7925415 22.83981323 C-7.99724991 22.12334017 -9.19742966 21.39918694 -10.39251709 20.66677856 C-17.4530777 16.34389177 -23.20121584 13.18741608 -31.625 14.6875 C-36.27124382 16.50559541 -38.18745607 19.41623924 -40.625 23.6875 C-41.21733075 27.10957934 -41.21733075 27.10957934 -41.12670898 30.79101562 C-41.13211197 31.47475754 -41.13751495 32.15849945 -41.14308167 32.86296082 C-41.15551597 35.10700735 -41.13911522 37.34975739 -41.12109375 39.59375 C-41.12124886 41.16263903 -41.12273989 42.73152844 -41.12550354 44.30041504 C-41.12688515 47.58212304 -41.11436993 50.86339273 -41.09155273 54.14501953 C-41.06316847 58.34151543 -41.06590845 62.53728356 -41.07864285 66.73383331 C-41.08561365 69.97159997 -41.07779483 73.20919983 -41.06538582 76.44694519 C-41.0608849 77.99382385 -41.06052259 79.54072049 -41.06445122 81.08760071 C-41.06737733 83.25343232 -41.05079162 85.41827774 -41.02905273 87.58398438 C-41.02364975 88.81387085 -41.01824677 90.04375732 -41.01268005 91.31091309 C-40.58216512 95.06058007 -39.57418772 97.47344629 -37.625 100.6875 C-35.32561825 102.60945449 -35.32561825 102.60945449 -32.57421875 104.0546875 C-31.57156982 104.62662842 -30.5689209 105.19856934 -29.53588867 105.7878418 C-28.47217041 106.373479 -27.40845215 106.95911621 -26.3125 107.5625 C-25.23266846 108.17456299 -24.15283691 108.78662598 -23.0402832 109.41723633 C-19.90993619 111.18888752 -16.76913623 112.94046922 -13.625 114.6875 C-11.44189117 115.91179927 -9.26082574 117.13942203 -7.08325195 118.37353516 C-5.43929427 119.30329035 -3.7882804 120.22053879 -2.13671875 121.13671875 C1.44287415 123.3468251 3.03550215 124.66900644 4.375 128.6875 C5.04111433 134.57150994 5.04111433 134.57150994 3.328125 137.44140625 C0.09664726 141.38570996 -1.52450773 142.56582662 -6.58203125 143.125 C-12.83012892 143.04510425 -17.18284557 139.97456348 -22.3125 136.6875 C-24.25714694 135.48460045 -26.20245925 134.28277589 -28.1484375 133.08203125 C-29.55367676 132.20345459 -29.55367676 132.20345459 -30.98730469 131.30712891 C-33.84772217 129.55074149 -36.75545676 127.91920632 -39.70458984 126.31835938 C-50.53910342 120.42028098 -59.8764897 112.87015847 -63.625 100.6875 C-64.41132134 95.98572453 -64.75491465 91.46561639 -64.77026367 86.70166016 C-64.77362228 86.04209824 -64.7769809 85.38253632 -64.78044128 84.70298767 C-64.78986265 82.5441596 -64.79188984 80.38540979 -64.79296875 78.2265625 C-64.79618719 76.71113047 -64.79955169 75.19569874 -64.80305481 73.68026733 C-64.80902385 70.51144694 -64.81089698 67.34265374 -64.81030273 64.17382812 C-64.81020118 60.13362814 -64.82385662 56.09360414 -64.84107494 52.05344582 C-64.85224768 48.92541722 -64.85422034 45.7974305 -64.85369301 42.669384 C-64.85486506 41.18079395 -64.8592428 39.69220253 -64.86702538 38.20363235 C-64.93709469 23.41938591 -63.28690935 11.94670339 -52.96875 0.80078125 C-36.20912828 -14.310811 -17.73427549 -10.27395002 0 0 Z " fill="#7343F9" transform="translate(82.625,33.3125)"/>
<path d="M0 0 C3.66381295 1.51854664 6.98576121 3.5128441 10.375 5.5625 C11.36234131 6.1402417 12.34968262 6.7179834 13.36694336 7.31323242 C15.48243936 8.55175315 17.59390536 9.79717857 19.70166016 11.04882812 C24.17638651 13.69590533 28.68371444 16.28470313 33.19189453 18.87426758 C36.50900599 20.78173881 39.81919432 22.70081982 43.12890625 24.62109375 C46.53310504 26.59086309 49.94505225 28.53516795 53.40234375 30.41015625 C65.34812523 36.90202345 74.07777382 43.9718969 79.1015625 56.81640625 C81.80307132 66.38914403 80.71062133 76.31735651 76 85 C75.443125 86.03125 74.88625 87.0625 74.3125 88.125 C67.5871863 96.48620082 59.03839525 101.63249086 49.75 106.75 C48.50123434 107.4490579 47.25311436 108.14927035 46.00561523 108.85058594 C43.50829919 110.25306788 41.00816265 111.65028285 38.50537109 113.04296875 C33.66794096 115.73822338 28.865537 118.49406832 24.0625 121.25 C22.3920488 122.20333831 20.72147664 123.15646469 19.05078125 124.109375 C15.47879694 126.14970703 11.91536558 128.20427985 8.35546875 130.265625 C6.94865845 131.07725098 6.94865845 131.07725098 5.51342773 131.90527344 C3.73609937 132.93093903 1.96070387 133.95996523 0.18774414 134.99316406 C-14.28365103 143.3283651 -14.28365103 143.3283651 -21 144 C-21.93005859 144.09474609 -21.93005859 144.09474609 -22.87890625 144.19140625 C-32.72981219 144.73769978 -41.87310875 140.96149604 -49.671875 135.125 C-58.63824976 126.9409264 -62.12463979 118.46038494 -62.67773438 106.57226562 C-62.72220703 105.41404297 -62.76667969 104.25582031 -62.8125 103.0625 C-62.87630859 101.90814453 -62.94011719 100.75378906 -63.00585938 99.56445312 C-63.2647473 93.20893682 -63.25900042 88.54493436 -60 83 C-56.57741895 79.96857107 -53.366432 79.46873571 -48.9296875 79.64453125 C-45.79876522 80.22128009 -44.14581999 81.72795531 -42 84 C-40.06708563 87.14426378 -39.75072208 89.54586403 -39.7265625 93.2109375 C-39.7059375 94.20867187 -39.6853125 95.20640625 -39.6640625 96.234375 C-39.63811902 98.32023082 -39.61983109 100.40619655 -39.609375 102.4921875 C-39.46694171 108.63264479 -39.10453929 112.32220103 -35 117 C-31.42670341 120.06282565 -28.07406023 120.65247791 -23.48828125 120.46484375 C-18.43639638 119.52108504 -14.35057265 116.61661092 -10 114 C-7.93194361 112.84091082 -5.85396925 111.70093495 -3.77514648 110.5612793 C3.97693062 106.3063298 11.65690356 101.9296852 19.29492188 97.47363281 C23.54303389 94.99585646 27.8017065 92.53981249 32.08398438 90.12141418 C34.46915796 88.77363748 36.85061552 87.41936322 39.23193359 86.06478882 C40.97028842 85.07934303 42.71362443 84.10270089 44.45703125 83.1262207 C45.52308594 82.51866943 46.58914062 81.91111816 47.6875 81.28515625 C48.64011719 80.74769775 49.59273438 80.21023926 50.57421875 79.65649414 C54.11492684 77.23864949 55.65175024 75.04474928 57 71 C57.39655596 65.74563351 57.05535135 62.35156101 54 58 C47.42068779 52.32084245 38.89970098 48.55688863 31.3125 44.390625 C27.23198039 42.14282152 23.2394737 39.77212828 19.26171875 37.34765625 C16.83002612 35.89872023 14.36348541 34.53650169 11.875 33.1875 C7.0966637 30.59667102 2.32021005 28.0035245 -2.4375 25.375 C-3.12408691 25.00270264 -3.81067383 24.63040527 -4.51806641 24.24682617 C-9.06893035 21.71975423 -12.73081738 19.29661617 -15.3125 14.625 C-16.21758151 11.16923423 -16.17964838 9.40016299 -15 6 C-10.88112585 0.77402962 -6.7185646 -1.27342994 0 0 Z " fill="#9673F5" transform="translate(81,94)"/>
<path d="M0 0 C0.886875 0.70125 1.77375 1.4025 2.6875 2.125 C3.71875 2.82625 4.75 3.5275 5.8125 4.25 C9.73076268 7.57021206 11.39498664 12.25906734 12.6875 17.125 C12.8515625 19.875 12.8515625 19.875 12.6875 22.125 C11.6875 23.125 11.6875 23.125 9.37084961 23.23852539 C8.37061768 23.23328857 7.37038574 23.22805176 6.33984375 23.22265625 C5.26025391 23.21943359 4.18066406 23.21621094 3.06835938 23.21289062 C1.93205078 23.20451172 0.79574219 23.19613281 -0.375 23.1875 C-1.51517578 23.18298828 -2.65535156 23.17847656 -3.83007812 23.17382812 C-6.65760351 23.16199747 -9.4850264 23.1455141 -12.3125 23.125 C-12.9725 20.815 -13.6325 18.505 -14.3125 16.125 C-18.00733919 14.94265146 -21.45603614 14.8445299 -25.3125 15.125 C-27.46030077 16.02257556 -27.46030077 16.02257556 -28.3125 18.125 C-28.8765591 21.60865001 -28.8765591 21.60865001 -27.3125 25.125 C-22.69474176 28.71774016 -16.78849756 30.32841765 -11.34301758 32.30273438 C-10.65232178 32.55345703 -9.96162598 32.80417969 -9.25 33.0625 C-8.55865967 33.31322266 -7.86731934 33.56394531 -7.1550293 33.82226562 C1.18195603 36.9286492 8.84604058 41.02726956 12.7578125 49.421875 C15.03144956 56.03261804 14.56477863 63.10167432 11.6875 69.4375 C7.37033505 76.95033175 1.32562509 81.80644087 -6.92578125 84.46484375 C-19.24360548 86.86589599 -31.62617296 86.19577468 -42.57421875 79.8046875 C-48.39874189 75.86425226 -52.0932159 70.78285229 -54.3125 64.125 C-54.3125 61.815 -54.3125 59.505 -54.3125 57.125 C-46.0625 57.125 -37.8125 57.125 -29.3125 57.125 C-28.3225 59.435 -27.3325 61.745 -26.3125 64.125 C-25.20123341 65.46401792 -25.20123341 65.46401792 -22.37109375 65.22265625 C-21.17613281 65.21105469 -19.98117187 65.19945312 -18.75 65.1875 C-17.55246094 65.17847656 -16.35492188 65.16945313 -15.12109375 65.16015625 C-13.73083984 65.14275391 -13.73083984 65.14275391 -12.3125 65.125 C-12.17654137 63.71103027 -12.08006155 62.29323316 -12 60.875 C-11.91298828 59.69164062 -11.91298828 59.69164062 -11.82421875 58.484375 C-12.13641576 55.95811925 -12.13641576 55.95811925 -14.23046875 54.0390625 C-18.27989012 51.52421273 -22.41550115 50.19383391 -26.9375 48.75 C-47.73382388 41.73149893 -47.73382388 41.73149893 -52.5078125 33.0546875 C-55.05102284 26.95592095 -55.38983541 19.93665952 -53.59375 13.58203125 C-50.64644849 6.48711593 -46.02971492 1.85678607 -39.3125 -1.875 C-26.72105799 -6.802086 -11.8939274 -6.73241174 0 0 Z " fill="#FDFDFD" transform="translate(309.3125,87.875)"/>
<path d="M0 0 C3.0625 2.1875 3.0625 2.1875 5 4 C5.33 2.02 5.66 0.04 6 -2 C13.59 -2 21.18 -2 29 -2 C29 21.1 29 44.2 29 68 C21.41 68 13.82 68 6 68 C5.67 66.35 5.34 64.7 5 63 C4.45730469 63.34933594 3.91460938 63.69867188 3.35546875 64.05859375 C2.64003906 64.51363281 1.92460938 64.96867187 1.1875 65.4375 C0.47980469 65.88996094 -0.22789062 66.34242188 -0.95703125 66.80859375 C-7.0255977 70.3476239 -15.18468369 69.86282098 -22 69 C-31.89566828 66.08689316 -37.37447501 60.42854282 -42.30859375 51.6796875 C-46.59700995 42.21252647 -46.56128807 29.73106337 -44.234375 19.69921875 C-43.32101749 17.31071637 -42.30518814 15.19488386 -41 13 C-40.401875 11.9275 -39.80375 10.855 -39.1875 9.75 C-29.45706697 -2.48254438 -14.40130539 -6.7754173 0 0 Z M-17 20 C-21.91900785 25.30735057 -22.35374129 28.86580746 -22.27734375 35.9453125 C-21.86948516 40.43750143 -20.83956155 42.48791072 -18 46 C-13.50110656 49.16967492 -9.33738009 49.74723321 -4 49 C0.04726526 47.75468761 2.24268773 46.17565193 4.4375 42.625 C6.9554447 36.91201622 6.33513908 30.96931366 5 25 C3.19700103 21.15789505 0.82709208 19.37134746 -3.0625 17.625 C-8.63403347 16.43956735 -12.01998665 17.42106452 -17 20 Z " fill="#FDFDFD" transform="translate(565,104)"/>
<path d="M0 0 C6.36031681 5.43052473 8.65412919 13.0751467 9.29748535 21.21414185 C9.58560563 28.29235349 9.4590542 35.36834419 9.34375 42.44921875 C9.32364826 44.60610315 9.30540401 46.76300571 9.2890625 48.91992188 C9.24880314 54.15967749 9.17046191 59.39686892 9.09375 64.63671875 C1.17375 64.63671875 -6.74625 64.63671875 -14.90625 64.63671875 C-14.96232422 60.06763672 -14.96232422 60.06763672 -15.01953125 55.40625 C-15.0657646 52.45069262 -15.11699173 49.49526097 -15.16870117 46.53979492 C-15.20192083 44.48844059 -15.22996197 42.4369955 -15.25268555 40.38549805 C-15.2862857 37.43368926 -15.33860476 34.48270989 -15.39453125 31.53125 C-15.40092117 30.61648392 -15.4073111 29.70171783 -15.41389465 28.75923157 C-15.52483165 23.93644969 -15.71015379 20.51058908 -18.90625 16.63671875 C-22.95576591 13.93704148 -26.15530815 14.10234216 -30.90625 14.63671875 C-34.01490155 15.89340767 -35.39801815 16.71125983 -37.00927734 19.64526367 C-38.27682949 23.87262252 -38.263488 27.92004567 -38.3203125 32.3125 C-38.33967865 33.23765915 -38.3590448 34.1628183 -38.3789978 35.11601257 C-38.43860254 38.06032192 -38.48510248 41.00467077 -38.53125 43.94921875 C-38.56944736 45.9498865 -38.60850012 47.95053811 -38.6484375 49.95117188 C-38.74589276 54.84626847 -38.82561295 59.74120077 -38.90625 64.63671875 C-46.82625 64.63671875 -54.74625 64.63671875 -62.90625 64.63671875 C-62.92934814 57.07849263 -62.94921862 49.52039164 -62.96118164 41.9621582 C-62.96617494 39.39704979 -62.9729719 36.83194417 -62.98168945 34.2668457 C-63.02557913 21.00958255 -63.05173872 7.85042723 -61.90625 -5.36328125 C-54.31625 -5.36328125 -46.72625 -5.36328125 -38.90625 -5.36328125 C-38.57625 -3.38328125 -38.24625 -1.40328125 -37.90625 0.63671875 C-37.43316406 0.29898438 -36.96007812 -0.03875 -36.47265625 -0.38671875 C-24.73235071 -8.30513145 -11.55987131 -8.26720304 0 0 Z " fill="#FDFDFD" transform="translate(804.90625,107.36328125)"/>
<path d="M0 0 C8.10367819 5.52021675 13.61672713 12.46690852 16 22 C16 27.28 16 32.56 16 38 C0.49 38 -15.02 38 -31 38 C-28.97384121 45.77277038 -28.97384121 45.77277038 -25 48 C-22.62244051 48.3168217 -22.62244051 48.3168217 -20.0625 48.25 C-19.20785156 48.25515625 -18.35320313 48.2603125 -17.47265625 48.265625 C-14.82093684 47.98076415 -13.21071392 47.48370062 -11 46 C-10.67 45.01 -10.34 44.02 -10 43 C-1.75 43 6.5 43 15 43 C11.51463655 53.45609035 8.20771279 59.95972134 -1.69140625 65.02734375 C-11.18406723 69.02678975 -23.03055483 69.81901617 -33.0625 66.9375 C-41.42892644 63.41047709 -48.05395165 57.14504851 -52 49 C-56.09592865 37.51898788 -56.20574395 26.47453915 -52 15 C-50.33455956 11.95447497 -48.38034452 9.51620894 -46 7 C-45.43539062 6.37222656 -44.87078125 5.74445313 -44.2890625 5.09765625 C-32.71027493 -6.45670349 -14.14766371 -6.5951515 0 0 Z M-29 19 C-29.66 20.98 -30.32 22.96 -31 25 C-23.08 25 -15.16 25 -7 25 C-8.25601937 18.39800362 -8.25601937 18.39800362 -11 16.0625 C-17.46353999 13.77332959 -24.29619809 13.41423523 -29 19 Z " fill="#FDFDFD" transform="translate(717,105)"/>
<path d="M0 0 C8.10013054 6.73734865 12.40950181 14.00071695 13.4453125 24.59375 C13.93622078 35.56915009 11.89401517 45.26900589 4.82421875 53.9375 C-3.31891138 62.1892052 -12.52231885 64.99304984 -23.80859375 65.15625 C-35.33785976 65.04909412 -43.30782859 62.35601098 -51.765625 54.234375 C-60.11702074 44.54374643 -60.59025934 34.15021311 -60.11279297 21.97363281 C-59.74444939 17.33872638 -58.31863519 13.66152164 -55.93359375 9.71875 C-55.52109375 9.00589844 -55.10859375 8.29304688 -54.68359375 7.55859375 C-49.65584614 -0.08301127 -41.11379883 -4.8097726 -32.30859375 -6.90625 C-20.52651495 -8.21536987 -9.80368191 -7.15546014 0 0 Z M-32.93359375 15.71875 C-36.94454426 20.55792038 -37.56193165 25.97654907 -37.32421875 32.09765625 C-36.6159727 36.84998722 -34.6949129 40.1189164 -31.1015625 43.3828125 C-27.28369751 45.73544282 -23.2693912 45.22553152 -18.93359375 44.71875 C-15.28933101 43.32307491 -14.24360752 42.21698642 -12.18359375 38.90625 C-10.94964073 35.7596698 -10.29035034 33.07226194 -9.93359375 29.71875 C-9.83046875 28.935 -9.72734375 28.15125 -9.62109375 27.34375 C-10.19259713 22.54312165 -12.46004723 18.35017651 -15.68359375 14.78125 C-21.86902375 11.8603525 -27.17473052 12.0640868 -32.93359375 15.71875 Z " fill="#FDFDFD" transform="translate(389.93359375,108.28125)"/>
<path d="M0 0 C5.63850599 4.72664078 9.9017525 9.98960895 12.1328125 17.08203125 C12.16201004 18.74844215 12.16566899 20.41568848 12.1328125 22.08203125 C8.21670766 22.25629881 4.30159753 22.3628728 0.3828125 22.45703125 C-1.28394531 22.53244141 -1.28394531 22.53244141 -2.984375 22.609375 C-6.05589421 22.66488438 -8.84844715 22.65937969 -11.8671875 22.08203125 C-14.4453125 19.12109375 -14.4453125 19.12109375 -15.8671875 16.08203125 C-20.01875083 14.69817681 -23.85393846 14.57871899 -28.1171875 15.64453125 C-30.96583469 17.98449145 -32.05757155 20.58542904 -32.8671875 24.08203125 C-33.47776001 30.71581906 -34.09319343 37.54450623 -29.8671875 43.08203125 C-26.90735873 45.70359387 -24.66444123 46.3310621 -20.8046875 46.14453125 C-18.77141358 46.103 -18.77141358 46.103 -16.8671875 45.08203125 C-16.37863281 44.08816406 -15.89007813 43.09429687 -15.38671875 42.0703125 C-12.8671875 39.08203125 -12.8671875 39.08203125 -10.30249023 38.49731445 C-7.06279912 38.26563244 -3.86508141 38.19949553 -0.6171875 38.20703125 C1.07277344 38.17609375 1.07277344 38.17609375 2.796875 38.14453125 C5.57625804 38.09742306 8.35311169 38.07759083 11.1328125 38.08203125 C12.81783645 45.21755395 9.12329242 49.8382862 5.4453125 55.83203125 C-3.02856624 64.07688624 -12.54870473 66.51618534 -23.97070312 66.44116211 C-34.66755528 66.1819825 -41.93715915 63.05964198 -49.69921875 55.59375 C-58.22935296 45.71109001 -58.69196818 34.53621959 -57.8671875 22.08203125 C-57.31977729 18.75581834 -56.4183578 16.06641214 -54.8671875 13.08203125 C-54.47660156 12.32664062 -54.08601563 11.57125 -53.68359375 10.79296875 C-49.02218036 2.89629677 -42.23174007 -2.14406355 -33.4921875 -4.85546875 C-22.00784285 -7.43622036 -9.99632004 -6.68691163 0 0 Z " fill="#FDFDFD" transform="translate(465.8671875,106.91796875)"/>
<path d="M0 0 C1.9765625 1.53515625 1.9765625 1.53515625 3.375 2.9375 C3.375 3.5975 3.375 4.2575 3.375 4.9375 C4.035 4.9375 4.695 4.9375 5.375 4.9375 C6.05342139 6.32765811 6.717229 7.7249527 7.375 9.125 C7.74625 9.90230469 8.1175 10.67960937 8.5 11.48046875 C9.375 13.9375 9.375 13.9375 9.375 18.9375 C2.115 19.2675 -5.145 19.5975 -12.625 19.9375 C-13.285 17.9575 -13.945 15.9775 -14.625 13.9375 C-17.14975462 12.67512269 -18.93700466 12.83893596 -21.75 12.875 C-22.66007813 12.88402344 -23.57015625 12.89304687 -24.5078125 12.90234375 C-25.55582031 12.91974609 -25.55582031 12.91974609 -26.625 12.9375 C-26.625 14.5875 -26.625 16.2375 -26.625 17.9375 C-21.92778466 20.50096452 -17.37501539 21.94836066 -12.25 23.3125 C-4.15850568 25.58123219 2.83934947 28.29471936 8.375 34.9375 C10.43264538 41.11043615 10.50595462 48.44939984 7.8125 54.375 C1.36712626 61.15090572 -4.49746637 65.81355874 -14.17578125 66.37109375 C-15.76284629 66.3946681 -17.35039108 66.39540729 -18.9375 66.375 C-20.18817261 66.36255249 -20.18817261 66.36255249 -21.46411133 66.34985352 C-31.24973392 66.08265305 -38.80521637 63.66682119 -45.96875 56.796875 C-49.88778847 52.39719973 -52.19751138 47.9223407 -52.625 41.9375 C-51.625 40.9375 -51.625 40.9375 -49.40014648 40.82397461 C-48.44180908 40.82921143 -47.48347168 40.83444824 -46.49609375 40.83984375 C-45.46162109 40.84306641 -44.42714844 40.84628906 -43.36132812 40.84960938 C-42.27271484 40.85798828 -41.18410156 40.86636719 -40.0625 40.875 C-38.4237793 40.88176758 -38.4237793 40.88176758 -36.75195312 40.88867188 C-34.04291505 40.90050174 -31.33398401 40.91698457 -28.625 40.9375 C-28.356875 41.72125 -28.08875 42.505 -27.8125 43.3125 C-26.77685568 46.21864923 -26.77685568 46.21864923 -23.625 47.9375 C-21.10915109 48.17900773 -21.10915109 48.17900773 -18.4375 48.0625 C-17.53644531 48.04445312 -16.63539063 48.02640625 -15.70703125 48.0078125 C-15.01996094 47.98460937 -14.33289063 47.96140625 -13.625 47.9375 C-13.625 45.9575 -13.625 43.9775 -13.625 41.9375 C-14.62917969 41.63457031 -15.63335938 41.33164063 -16.66796875 41.01953125 C-21.00047468 39.70029437 -25.31492238 38.32806766 -29.625 36.9375 C-30.86121094 36.54175781 -32.09742188 36.14601562 -33.37109375 35.73828125 C-39.94762204 33.44980146 -45.34588958 31.38307964 -48.625 24.9375 C-50.91692707 18.92866511 -51.08152259 13.9485734 -48.66796875 7.97265625 C-45.37075805 1.5387732 -40.4242617 -2.4350047 -33.59765625 -4.75 C-22.05182244 -7.75651007 -9.85080146 -7.0683821 0 0 Z " fill="#FDFDFD" transform="translate(874.625,107.0625)"/>
<path d="M0 0 C7.92 0 15.84 0 24 0 C24 23.1 24 46.2 24 70 C33.24 70 42.48 70 52 70 C52 75.94 52 81.88 52 88 C34.84 88 17.68 88 0 88 C0 58.96 0 29.92 0 0 Z " fill="#FDFDFD" transform="translate(607,84)"/>
<path d="M0 0 C7.92 0 15.84 0 24 0 C24 23.1 24 46.2 24 70 C16.08 70 8.16 70 0 70 C0 46.9 0 23.8 0 0 Z " fill="#FEFEFE" transform="translate(487,102)"/>
<path d="M0 0 C3.93792706 2.07347327 6.53170609 4.07476908 8.02734375 8.28125 C8.40478272 12.35759084 8.10076284 15.75369206 5.70703125 19.16015625 C1.97872526 22.75840506 -1.60417676 24.20668955 -6.76171875 24.453125 C-11.20238014 24.10791457 -14.50116959 22.60558799 -17.84765625 19.59375 C-19.48144519 16.23540606 -20.09392178 12.98341517 -19.97265625 9.28125 C-18.46479996 5.07512455 -16.82678611 2.5696396 -12.97265625 0.28125 C-8.60262175 -1.17542817 -4.35995829 -1.58857886 0 0 Z " fill="#FCFCFC" transform="translate(504.97265625,72.71875)"/>
<path d="M0 0 C7.92 0 15.84 0 24 0 C24 23.1 24 46.2 24 70 C22.35 70 20.7 70 19 70 C20.485 69.505 20.485 69.505 22 69 C22 46.89 22 24.78 22 2 C15.4 2 8.8 2 2 2 C2 24.11 2 46.22 2 69 C7.28 69 12.56 69 18 69 C18 69.33 18 69.66 18 70 C12.06 70 6.12 70 0 70 C0 46.9 0 23.8 0 0 Z " fill="#F1F1F1" transform="translate(487,102)"/>
<path d="M0 0 C3.20087838 0.08132903 4.20654538 0.38659284 7.0625 2.125 C10.54326153 5.81051221 11.42771003 8.54524092 11.4609375 13.5859375 C11.4815625 14.58367187 11.5021875 15.58140625 11.5234375 16.609375 C11.54938098 18.69523082 11.56766891 20.78119655 11.578125 22.8671875 C11.72055829 29.00764479 12.08296071 32.69720103 16.1875 37.375 C19.76079659 40.43782565 23.11343977 41.02747791 27.69921875 40.83984375 C32.75110362 39.89608504 36.83692735 36.99161092 41.1875 34.375 C43.25612823 33.21559031 45.33468073 32.07530247 47.4140625 30.93530273 C54.53633189 27.02616196 61.59649476 23.0124487 68.625 18.9375 C69.78696899 18.26473022 69.78696899 18.26473022 70.97241211 17.57836914 C75.17441891 15.14032842 79.36246046 12.68054059 83.5390625 10.19921875 C84.41119385 9.68480225 85.2833252 9.17038574 86.18188477 8.64038086 C87.86603862 7.6466036 89.54637658 6.64632475 91.22241211 5.63891602 C91.97530518 5.19604248 92.72819824 4.75316895 93.50390625 4.296875 C94.16849854 3.90081055 94.83309082 3.50474609 95.51782227 3.09667969 C96.06881592 2.85852539 96.61980957 2.62037109 97.1875 2.375 C98.1775 2.87 98.1775 2.87 99.1875 3.375 C94.57087183 7.39593421 88.51694487 12.375 82.1875 12.375 C82.1875 13.035 82.1875 13.695 82.1875 14.375 C81.3521875 14.7771875 80.516875 15.179375 79.65625 15.59375 C75.88771808 17.52894207 72.29841945 19.66467961 68.6875 21.875 C64.26612179 24.58141939 59.85240831 27.10005841 55.1875 29.375 C48.2501953 33.04396966 41.45936134 36.93927212 34.71875 40.95703125 C30.39979596 43.37644532 27.09768447 43.70789386 22.1875 43.375 C16.8577377 41.34969033 12.58824651 38.28018425 10.06616211 33.04931641 C9.13326222 30.20992064 8.9189254 27.9422336 8.87890625 24.9609375 C8.85376953 23.95289063 8.82863281 22.94484375 8.80273438 21.90625 C8.76744866 19.7943344 8.73622807 17.68234715 8.70898438 15.5703125 C8.6693457 14.06210938 8.6693457 14.06210938 8.62890625 12.5234375 C8.61545166 11.60739746 8.60199707 10.69135742 8.58813477 9.74755859 C8.11508791 6.94617567 7.40072598 6.09403017 5.1875 4.375 C2.89120006 3.22685003 1.11051914 3.06730191 -1.4375 2.8125 C-2.25476563 2.72871094 -3.07203125 2.64492187 -3.9140625 2.55859375 C-4.54054688 2.49800781 -5.16703125 2.43742188 -5.8125 2.375 C-3.8125 0.375 -3.8125 0.375 0 0 Z " fill="#8972D0" transform="translate(29.8125,173.625)"/>
<path d="M0 0 C7.59 0 15.18 0 23 0 C23 23.1 23 46.2 23 70 C15.74 70 8.48 70 1 70 C1.495 69.01 1.495 69.01 2 68 C8.27 68 14.54 68 21 68 C21 46.22 21 24.44 21 2 C10.01795644 1.30357701 10.01795644 1.30357701 1 5 C0.67 3.35 0.34 1.7 0 0 Z " fill="#F2F2F1" transform="translate(571,102)"/>
<path d="M0 0 C7.92 0 15.84 0 24 0 C24 23.76 24 47.52 24 72 C23.34 72 22.68 72 22 72 C22 48.9 22 25.8 22 2 C11.11 2.495 11.11 2.495 0 3 C0 2.01 0 1.02 0 0 Z " fill="#E8E8E8" transform="translate(607,84)"/>
<path d="M0 0 C0 3 0 3 -1.859375 5.3125 C-8.13464062 13.19093567 -9.03189618 24.29526212 -8 34 C-6.90156331 39.5070272 -5.42421346 43.55468432 -2 48 C-1.68675781 48.680625 -1.37351562 49.36125 -1.05078125 50.0625 C2.20908122 56.07325014 9.93649245 58.48904571 16.0625 60.375 C18.03753605 60.93153937 20.01541178 61.47854715 22 62 C22 62.33 22 62.66 22 63 C11.08078533 62.5524912 3.47157451 59.09553898 -4 51 C-10.23210177 42.51171962 -11.96476597 32.35209195 -11 22 C-9.5782722 12.77669023 -6.56475779 6.56475779 0 0 Z " fill="#F1F1F1" transform="translate(673,110)"/>
<path d="M0 0 C0.66 0 1.32 0 2 0 C4.55820742 5.67254689 6.13087965 10.49068524 6.11352539 16.7902832 C6.11344986 17.71086014 6.11337433 18.63143707 6.11329651 19.57991028 C6.10813522 20.5602977 6.10297394 21.54068512 6.09765625 22.55078125 C6.0962413 23.56472458 6.09482635 24.57866791 6.09336853 25.62333679 C6.08778328 28.85308821 6.07523345 32.08276962 6.0625 35.3125 C6.0574831 37.50585837 6.05292052 39.69921783 6.04882812 41.89257812 C6.03867075 47.26176725 6.01909236 52.6308055 6 58 C-1.59 58 -9.18 58 -17 58 C-16.67 57.01 -16.34 56.02 -16 55 C-16 55.66 -16 56.32 -16 57 C-9.4 57 -2.8 57 4 57 C3.92565217 50.64966971 3.84250702 44.3006586 3.73754883 37.95092773 C3.70448608 35.79507502 3.67639736 33.63913962 3.65356445 31.4831543 C3.61967318 28.36732042 3.5673426 25.25223173 3.51171875 22.13671875 C3.50532883 21.18729904 3.4989389 20.23787933 3.49235535 19.25968933 C3.34635732 12.47302824 2.04774312 6.46388532 0 0 Z " fill="#ECECEC" transform="translate(808,114)"/>
<path d="M0 0 C1.57394531 -0.05607422 1.57394531 -0.05607422 3.1796875 -0.11328125 C6.76396444 0.40487019 7.87527959 1.55740761 10.125 4.3125 C9.56683594 4.15265625 9.00867188 3.9928125 8.43359375 3.828125 C3.3770554 2.69874588 -1.90500622 2.54163287 -6.75 4.4375 C-10.42450212 7.67970775 -12.65595856 10.79309319 -13.36274719 15.69581604 C-13.35688095 16.92871872 -13.35101471 18.1616214 -13.3449707 19.43188477 C-13.3471611 20.11723297 -13.3493515 20.80258118 -13.35160828 21.50869751 C-13.35390605 23.75760358 -13.32773968 26.00517638 -13.30078125 28.25390625 C-13.2958527 29.82518601 -13.29255685 31.39647166 -13.29081726 32.96775818 C-13.28319378 36.25368136 -13.26268425 39.53916639 -13.23168945 42.82495117 C-13.19208332 47.03032868 -13.1740724 51.23542192 -13.16438007 55.4409647 C-13.15439217 59.46198342 -13.13452967 63.48293356 -13.11328125 67.50390625 C-13.1098855 68.26766634 -13.10648975 69.03142643 -13.1029911 69.81833076 C-13.09137026 71.98647256 -13.07284295 74.15443927 -13.05200195 76.32250977 C-13.04215775 77.55461685 -13.03231354 78.78672394 -13.02217102 80.0561676 C-12.89224334 82.93097074 -12.53707545 85.51879906 -11.875 88.3125 C-13.34875488 87.25714111 -13.34875488 87.25714111 -14.875 85.3125 C-15.26940918 82.15155029 -15.26940918 82.15155029 -15.29492188 78.19824219 C-15.30339142 77.47753036 -15.31186096 76.75681854 -15.32058716 76.01426697 C-15.34400462 73.62912384 -15.3449779 71.24462446 -15.34375 68.859375 C-15.35085119 67.19891095 -15.35855013 65.53844936 -15.36682129 63.87799072 C-15.38027873 60.39433989 -15.38183035 56.91091567 -15.37597656 53.42724609 C-15.37009373 48.97384191 -15.40060621 44.52153293 -15.44109344 40.0683403 C-15.46701662 36.63665969 -15.46984344 33.20524067 -15.46620178 29.77347565 C-15.46789022 28.13249215 -15.47750616 26.49149621 -15.49534607 24.85060883 C-15.63492532 10.41873194 -15.63492532 10.41873194 -12.46289062 5.75097656 C-9.875 3.3125 -9.875 3.3125 -7.875 3.3125 C-7.875 2.6525 -7.875 1.9925 -7.875 1.3125 C-5.18932703 -0.03033649 -2.99753147 0.06962481 0 0 Z " fill="#6449B9" transform="translate(54.875,44.6875)"/>
<path d="M0 0 C1.3671875 2.140625 1.3671875 2.140625 2 4 C-0.44140625 2.92578125 -0.44140625 2.92578125 -2.8828125 1.8515625 C-12.31592304 -1.94256683 -23.80026943 -2.97498013 -33.5625 0.5625 C-42.06043601 4.71768773 -46.66497714 10.31869614 -50.7734375 18.7421875 C-52 21 -52 21 -54 22 C-52.67893758 13.73602066 -48.37033146 7.64739936 -41.8125 2.5625 C-29.31570159 -5.79684488 -13.58536569 -6.56963953 0 0 Z " fill="#F3F3F3" transform="translate(463,105)"/>
<path d="M0 0 C1.37562854 1.28965176 2.70766393 2.62689293 4 4 C4 4.66 4 5.32 4 6 C4.66 6.33 5.32 6.66 6 7 C6.45375 7.804375 6.9075 8.60875 7.375 9.4375 C9.07868328 12.12407748 10.08653091 12.89489103 13 14 C13.33 13.34 13.66 12.68 14 12 C14.165 12.7425 14.33 13.485 14.5 14.25 C16.91626712 18.67982305 21.23759631 20.14443772 25.9296875 21.59765625 C33.13155353 22.99726418 40.05068378 22.00234535 47 20 C48.99601306 19.6435691 50.994845 19.30077325 53 19 C47.2362754 23.70858051 39.82031618 25.65740756 32.41015625 25.34375 C20.29993918 23.61652293 10.69310924 17.96896262 3.375 8.25 C0 3.4743083 0 3.4743083 0 0 Z " fill="#8C74D0" transform="translate(21,213)"/>
<path d="M0 0 C3.8512933 1.62024793 7.36380941 3.72001521 10.9375 5.875 C11.93789307 6.45983154 12.93828613 7.04466309 13.96899414 7.6472168 C16.98853473 9.41637918 19.99428593 11.20747778 23 13 C24.75921772 14.03199447 26.51955833 15.06207821 28.28125 16.08984375 C32.19734108 18.37692066 36.10204578 20.68215608 40 23 C37 24 37 24 33.86328125 22.56640625 C32.6739872 21.90864027 31.49053629 21.24022185 30.3125 20.5625 C29.70599609 20.22412109 29.09949219 19.88574219 28.47460938 19.53710938 C26.9779975 18.70042085 25.48830811 17.85137169 24 17 C24 16.34 24 15.68 24 15 C23.43410156 14.87882812 22.86820313 14.75765625 22.28515625 14.6328125 C21.18494141 14.38144531 21.18494141 14.38144531 20.0625 14.125 C19.33160156 13.96257812 18.60070312 13.80015625 17.84765625 13.6328125 C16 13 16 13 15 11 C13.13694505 9.95981846 11.23358643 8.99114326 9.3125 8.0625 C8.27738281 7.55847656 7.24226563 7.05445312 6.17578125 6.53515625 C5.12777344 6.02855469 4.07976562 5.52195312 3 5 C1.95585938 4.42894531 0.91171875 3.85789062 -0.1640625 3.26953125 C-3.05836932 1.65877035 -3.05836932 1.65877035 -6.6875 2.625 C-9.59185015 3.83057931 -11.11402909 4.55933177 -13 7 C-13 4 -13 4 -11 1.8125 C-7.19888923 -0.48400443 -4.28463681 -0.77510794 0 0 Z " fill="#8D75D7" transform="translate(81,94)"/>
<path d="M0 0 C-2.61046395 2.61046395 -4.56809146 3.16725136 -8.125 3.375 C-14.59064266 3.9395454 -20.34453302 6.29077862 -24.9296875 10.96875 C-29.48633022 16.8117177 -30.13114799 20.83601749 -30.0625 28.25 C-30.05347656 29.51328125 -30.04445313 30.7765625 -30.03515625 32.078125 C-30.02355469 33.04234375 -30.01195312 34.0065625 -30 35 C-30.66 35 -31.32 35 -32 35 C-34.06523689 28.80428933 -33.82206933 22.15606178 -31.3125 16.125 C-27.93807536 9.4827115 -22.47341439 4.5836293 -15.41796875 2.0859375 C-10.14980272 0.5436837 -5.48118965 -0.36541264 0 0 Z " fill="#EFEFEF" transform="translate(288,83)"/>
<path d="M0 0 C4.80659781 0.80109964 7.78022118 1.67259363 11.125 5.3125 C14.61701828 10.31772621 15.23948581 13.89311197 15 20 C15.66 20 16.32 20 17 20 C16.83984375 22.2890625 16.83984375 22.2890625 16 25 C13.56640625 26.8359375 13.56640625 26.8359375 10.5625 28.375 C9.57378906 28.89835937 8.58507812 29.42171875 7.56640625 29.9609375 C6.71949219 30.30382812 5.87257812 30.64671875 5 31 C4.34 30.67 3.68 30.34 3 30 C3.48210937 29.69707031 3.96421875 29.39414063 4.4609375 29.08203125 C9.65974098 25.63831303 9.65974098 25.63831303 12 20 C12.47692045 14.7538751 12.04846641 11.3417552 9 7 C6.69306796 5.24934945 4.33779369 3.70286985 1.86328125 2.19921875 C1.24839844 1.80347656 0.63351563 1.40773437 0 1 C0 0.67 0 0.34 0 0 Z " fill="#8E73D9" transform="translate(126,145)"/>
<path d="M0 0 C15.9297847 7.53564665 30.94058045 16.88331103 46 26 C45.67 26.66 45.34 27.32 45 28 C44.16855469 27.50628906 43.33710938 27.01257813 42.48046875 26.50390625 C41.39378906 25.86324219 40.30710938 25.22257812 39.1875 24.5625 C38.10855469 23.92441406 37.02960938 23.28632812 35.91796875 22.62890625 C33.06819358 20.919233 33.06819358 20.919233 30 20 C30 19.34 30 18.68 30 18 C29.42765625 17.88140625 28.8553125 17.7628125 28.265625 17.640625 C25.83774735 16.95412166 23.94147896 15.99551682 21.75 14.75 C20.96238281 14.30398437 20.17476562 13.85796875 19.36328125 13.3984375 C17.18296156 12.10826486 15.06043314 10.7567908 12.9375 9.375 C10.20805946 7.61566182 7.64519862 6.45226734 4.5625 5.4375 C3.386875 4.963125 2.21125 4.48875 1 4 C0.27734375 1.91015625 0.27734375 1.91015625 0 0 Z " fill="#6848CB" transform="translate(91,39)"/>
<path d="M0 0 C2.95653215 1.38546013 5.48533196 3.02349716 8.125 4.9375 C16.4183147 10.47088616 25.11017963 12.15706026 35 11 C38.49888011 10.1098664 41.8771931 9.06468895 45.28515625 7.875 C48 7 48 7 51 7 C43.6013879 13.75525452 33.79596086 13.64759074 24.38671875 13.33984375 C14.07959904 12.72057913 6.9697735 8.52047165 0 1 C0 0.67 0 0.34 0 0 Z " fill="#F1F1F1" transform="translate(337,160)"/>
<path d="M0 0 C0.66 0 1.32 0 2 0 C5.33533296 10.29950817 5.53377585 21.53175137 1.28125 31.5859375 C-3.6123348 40.8061674 -3.6123348 40.8061674 -8 43 C-6.92457798 39.77373395 -5.54766806 37.30086122 -3.5 34.625 C-0.99740221 31.20969007 0.13341055 28.18851567 1 24 C1.1340625 23.36835938 1.268125 22.73671875 1.40625 22.0859375 C2.62846127 14.66933727 1.17018451 7.3402483 0 0 Z " fill="#F0F0F0" transform="translate(399,122)"/>
<path d="M0 0 C2.54532213 1.33964322 4.57078153 2.42770871 6.3125 4.75 C7.32815881 8.0739743 7.41796486 10.53686262 7 14 C5.21523759 16.97239241 3.14791945 19.42604027 0 21 C-6.34568704 21.92157281 -10.35611496 20.75009476 -15.56640625 17.09375 C-16.03949219 16.7328125 -16.51257812 16.371875 -17 16 C-16.34 15.67 -15.68 15.34 -15 15 C-12.375 15.9375 -12.375 15.9375 -10 17 C-10 17.66 -10 18.32 -10 19 C-8.04020573 18.71831703 -6.08217622 18.42433283 -4.125 18.125 C-3.03445312 17.96257812 -1.94390625 17.80015625 -0.8203125 17.6328125 C2.11932714 17.23743487 2.11932714 17.23743487 4 15 C4.50397586 11.96442448 4.46592562 9.03935198 4 6 C2.14579161 3.55901182 2.14579161 3.55901182 0 2 C0 1.34 0 0.68 0 0 Z " fill="#6344CE" transform="translate(80,155)"/>
<path d="M0 0 C2.875 0.6875 2.875 0.6875 6 2 C8.05990112 5.8118436 8.29747785 9.21367856 8.3125 13.5 C8.32925781 14.6034375 8.34601563 15.706875 8.36328125 16.84375 C7.96254476 20.32541755 7.12205074 22.23255669 5 25 C4.34 25 3.68 25 3 25 C2.67 25.99 2.34 26.98 2 28 C1.01 27.67 0.02 27.34 -1 27 C-1 27.66 -1 28.32 -1 29 C-1.99 29.33 -2.98 29.66 -4 30 C-2.8351758 26.85497466 -1.70414415 25.76578078 1 23.625 C4.36837946 20.67766797 5.24456724 19.36472259 6 15 C5.85622668 10.80900775 5.32704702 6.98114107 4 3 C1.99983534 1.79117904 1.99983534 1.79117904 0 1 C0 0.67 0 0.34 0 0 Z " fill="#6142DE" transform="translate(185,118)"/>
<path d="M0 0 C7.59 0 15.18 0 23 0 C23.33 1.98 23.66 3.96 24 6 C24.99 5.34 25.98 4.68 27 4 C26.34 5.32 25.68 6.64 25 8 C24.34 8 23.68 8 23 8 C22.67 8.66 22.34 9.32 22 10 C21.34 7.36 20.68 4.72 20 2 C13.4 2 6.8 2 0 2 C0 1.34 0 0.68 0 0 Z " fill="#F0F0F0" transform="translate(743,102)"/>
<path d="M0 0 C3.80640836 0.57264551 6.43871561 1.64157132 9.6875 3.6875 C10.54859375 4.22117187 11.4096875 4.75484375 12.296875 5.3046875 C13.18890625 5.86414062 14.0809375 6.42359375 15 7 C16.80943893 8.10917584 18.6218353 9.21354505 20.4375 10.3125 C21.24058594 10.80363281 22.04367188 11.29476562 22.87109375 11.80078125 C25.07286228 13.12989008 25.07286228 13.12989008 28 14 C28 14.66 28 15.32 28 16 C29.65 16.33 31.3 16.66 33 17 C33 17.66 33 18.32 33 19 C27.71263141 17.50357493 23.40908704 15.07108424 18.75 12.25 C18.00435791 11.80406494 17.25871582 11.35812988 16.49047852 10.89868164 C15.00740912 10.01109073 13.5256813 9.12125374 12.04541016 8.22900391 C10.25952521 7.15593816 8.46448791 6.09813416 6.66796875 5.04296875 C5.76691406 4.51316406 4.86585937 3.98335937 3.9375 3.4375 C3.16277344 2.98246094 2.38804688 2.52742188 1.58984375 2.05859375 C1.06519531 1.70925781 0.54054688 1.35992187 0 1 C0 0.67 0 0.34 0 0 Z " fill="#5F3FC4" transform="translate(72,53)"/>
<path d="M0 0 C0.85049423 0.0199855 1.70098846 0.03997101 2.57725525 0.06056213 C3.53817581 0.08065842 4.49909637 0.1007547 5.48913574 0.12145996 C6.53391586 0.14849503 7.57869598 0.17553009 8.65513611 0.2033844 C10.25112892 0.23880089 10.25112892 0.23880089 11.87936401 0.27493286 C15.29303115 0.35178603 18.70648365 0.43571675 22.11997986 0.51979065 C24.4279119 0.57298967 26.73585457 0.62573019 29.04380798 0.67799377 C34.71516607 0.80743028 40.38636349 0.94268499 46.05747986 1.08229065 C46.05747986 1.41229065 46.05747986 1.74229065 46.05747986 2.08229065 C30.54747986 2.08229065 15.03747986 2.08229065 -0.94252014 2.08229065 C-0.61252014 3.73229065 -0.28252014 5.38229065 0.05747986 7.08229065 C-0.93252014 6.75229065 -1.92252014 6.42229065 -2.94252014 6.08229065 C-2.98524114 4.4161716 -2.98315846 2.7484618 -2.94252014 1.08229065 C-1.94252014 0.08229065 -1.94252014 0.08229065 0 0 Z " fill="#F4F4F4" transform="translate(686.9425201416016,140.91770935058594)"/>
<path d="M0 0 C1.57394531 -0.05607422 1.57394531 -0.05607422 3.1796875 -0.11328125 C6.76396444 0.40487019 7.87527959 1.55740761 10.125 4.3125 C9.56683594 4.15265625 9.00867188 3.9928125 8.43359375 3.828125 C3.42137764 2.70864526 -1.83341893 2.58660451 -6.6875 4.3125 C-9.83565354 7.19081181 -11.80761601 10.60880358 -13.875 14.3125 C-14.51953125 12.546875 -14.51953125 12.546875 -14.875 10.3125 C-13.94921875 8.390625 -13.94921875 8.390625 -12.5625 6.5625 C-12.11261719 5.94890625 -11.66273437 5.3353125 -11.19921875 4.703125 C-10.76222656 4.24421875 -10.32523438 3.7853125 -9.875 3.3125 C-9.215 3.3125 -8.555 3.3125 -7.875 3.3125 C-7.875 2.6525 -7.875 1.9925 -7.875 1.3125 C-5.18932703 -0.03033649 -2.99753147 0.06962481 0 0 Z " fill="#6241CA" transform="translate(54.875,44.6875)"/>
<path d="M0 0 C0.33 0 0.66 0 1 0 C1.43207745 8.43751245 1.67927403 15.69076904 -3 23 C-3.66 23.66 -4.32 24.32 -5 25 C-5 23.68 -5 22.36 -5 21 C-4.34 21 -3.68 21 -3 21 C-3.061875 19.7625 -3.12375 18.525 -3.1875 17.25 C-3.21619744 11.252234 -1.62969341 5.7330286 0 0 Z " fill="#6747DA" transform="translate(213,126)"/>
<path d="M0 0 C0 0.66 0 1.32 0 2 C-0.99 2.33 -1.98 2.66 -3 3 C-3.66 3.66 -4.32 4.32 -5 5 C-5 4.34 -5 3.68 -5 3 C-5.66 2.67 -6.32 2.34 -7 2 C-2.25 0 -2.25 0 0 0 Z M-9 3 C-7 4 -7 4 -7 4 Z M-9 4 C-9 4.66 -9 5.32 -9 6 C-10.0476549 6.89756951 -11.1396628 7.74374295 -12.25 8.5625 C-16.47531161 12.01645655 -18.19046421 15.94229128 -20 21 C-20.66 20.34 -21.32 19.68 -22 19 C-14.46666667 4 -14.46666667 4 -9 4 Z " fill="#F3F3F3" transform="translate(544,102)"/>
<path d="M0 0 C0.66 0.33 1.32 0.66 2 1 C1.38511719 1.45890625 0.77023437 1.9178125 0.13671875 2.390625 C-0.67152344 3.00421875 -1.47976563 3.6178125 -2.3125 4.25 C-3.11300781 4.85328125 -3.91351563 5.4565625 -4.73828125 6.078125 C-6.89019161 7.90669131 -8.347357 9.73185653 -10 12 C-10.99 12.495 -10.99 12.495 -12 13 C-12.67939174 14.99571323 -13.34561559 16.99594773 -14 19 C-14.66 19.66 -15.32 20.32 -16 21 C-15.68748524 14.9059621 -12.906649 10.50952693 -9 6 C-6.14242778 3.72418108 -3.17610466 1.79979264 0 0 Z " fill="#F3F3F3" transform="translate(348,105)"/>
<path d="M0 0 C5.34848653 0.27428136 8.51588787 2.45568603 12.75 5.4453125 C14.76542714 6.83791667 16.78239968 8.02913358 18.9375 9.1875 C22 11 22 11 24 14 C20.50452594 12.69229605 17.42072551 11.15107021 14.25 9.1875 C9.56822778 6.32641698 4.81542715 3.62871144 0 1 C0 0.67 0 0.34 0 0 Z " fill="#937CD3" transform="translate(89,124)"/>
<path d="M0 0 C5.09470269 1.34071123 9.08896676 3.79370258 13.51953125 6.53515625 C16.59428375 8.35095497 19.67893303 9.70045205 23 11 C23 11.66 23 12.32 23 13 C23.99 13.33 24.98 13.66 26 14 C25.01 14.495 25.01 14.495 24 15 C21.56982422 13.84423828 21.56982422 13.84423828 18.5546875 12.0703125 C17.47832031 11.43996094 16.40195313 10.80960938 15.29296875 10.16015625 C14.16503906 9.48855469 13.03710938 8.81695312 11.875 8.125 C10.73933594 7.46113281 9.60367188 6.79726562 8.43359375 6.11328125 C2.29331951 2.49398395 2.29331951 2.49398395 0 1 C0 0.67 0 0.34 0 0 Z " fill="#6645C5" transform="translate(119,80)"/>
<path d="M0 0 C4.37352504 1.63480512 8.44332744 3.69592937 12.5625 5.875 C13.22185547 6.21402344 13.88121094 6.55304688 14.56054688 6.90234375 C18.28021564 8.86872141 21.17864518 10.79815713 24 14 C20.93821659 13.32038217 18.18402705 12.32027631 15.3125 11.0625 C14.52488281 10.72347656 13.73726562 10.38445312 12.92578125 10.03515625 C11 9 11 9 10 7 C9.071875 6.731875 8.14375 6.46375 7.1875 6.1875 C3.4706689 4.80279822 2.20606513 3.22424903 0 0 Z " fill="#927BD8" transform="translate(121,118)"/>
<path d="M0 0 C0.33 0 0.66 0 1 0 C1.53323089 11.10897682 1.10950978 19.97560793 -6 29 C-5.71640113 27.5608866 -5.42278601 26.12374482 -5.125 24.6875 C-4.96257812 23.88699219 -4.80015625 23.08648437 -4.6328125 22.26171875 C-4 20 -4 20 -2 17 C-1.54861089 15.07552109 -1.54861089 15.07552109 -1.3671875 12.98828125 C-1.28339844 12.23095703 -1.19960937 11.47363281 -1.11328125 10.69335938 C-0.99533203 9.51483398 -0.99533203 9.51483398 -0.875 8.3125 C-0.78863281 7.51521484 -0.70226562 6.71792969 -0.61328125 5.89648438 C-0.40151528 3.93176674 -0.19978527 1.96597204 0 0 Z " fill="#8D78D2" transform="translate(160,154)"/>
<path d="M0 0 C4.32421646 1.58444573 8.26442583 3.717804 12.25 6 C12.88679688 6.35578125 13.52359375 6.7115625 14.1796875 7.078125 C18.87881324 9.75762649 18.87881324 9.75762649 20 12 C17.69 11.67 15.38 11.34 13 11 C12.67 10.01 12.34 9.02 12 8 C11.34 8 10.68 8 10 8 C10 7.34 10 6.68 10 6 C9.46375 5.896875 8.9275 5.79375 8.375 5.6875 C5.37497956 4.81907303 2.7620465 3.44379704 0 2 C0 1.34 0 0.68 0 0 Z " fill="#6F4CE1" transform="translate(48,137)"/>
<path d="M0 0 C0.33 0 0.66 0 1 0 C1.66 4.29 2.32 8.58 3 13 C6.63 13.66 10.26 14.32 14 15 C14 15.33 14 15.66 14 16 C5.18700114 16.44811859 5.18700114 16.44811859 1 13 C-1.56240146 9.58346473 -1.23025278 6.14454999 -1 2 C-0.67 1.34 -0.34 0.68 0 0 Z " fill="#6547CC" transform="translate(180,148)"/>
<path d="M0 0 C-0.33 0.66 -0.66 1.32 -1 2 C-2.85766602 2.41064453 -2.85766602 2.41064453 -5.25390625 2.6328125 C-6.10791016 2.71660156 -6.96191406 2.80039062 -7.84179688 2.88671875 C-8.73962891 2.96535156 -9.63746094 3.04398438 -10.5625 3.125 C-11.91504883 3.25455078 -11.91504883 3.25455078 -13.29492188 3.38671875 C-15.52929918 3.59951659 -17.76413615 3.80354467 -20 4 C-14.78913459 -1.21086541 -6.83467332 -0.22246676 0 0 Z " fill="#6745CF" transform="translate(61,24)"/>
<path d="M0 0 C1.8871875 0.0309375 1.8871875 0.0309375 3.8125 0.0625 C1.8125 2.0625 1.8125 2.0625 -2 2.3125 C-4.56930357 2.55031213 -5.80786295 2.72451888 -7.75390625 4.45703125 C-8.93585177 5.96357076 -10.06516761 7.51104052 -11.1875 9.0625 C-11.8475 9.0625 -12.5075 9.0625 -13.1875 9.0625 C-11.91840537 5.14945821 -10.72493024 3.20639712 -7.1875 1.0625 C-4.43671116 0.14557039 -2.82801087 -0.04636083 0 0 Z " fill="#F2F2F2" transform="translate(499.1875,71.9375)"/>
<path d="M0 0 C0.99 0.33 1.98 0.66 3 1 C0.21605957 2.70050657 -2.57827525 4.38311625 -5.375 6.0625 C-6.1690625 6.54783203 -6.963125 7.03316406 -7.78125 7.53320312 C-8.54179688 7.98759766 -9.30234375 8.44199219 -10.0859375 8.91015625 C-10.7876709 9.33433838 -11.4894043 9.75852051 -12.21240234 10.19555664 C-13.09726318 10.5937561 -13.09726318 10.5937561 -14 11 C-14.66 10.67 -15.32 10.34 -16 10 C-12.99626105 6.49563789 -9.14863869 4.52264184 -4.6875 3.4375 C-4.130625 3.293125 -3.57375 3.14875 -3 3 C-2.67 2.34 -2.34 1.68 -2 1 C-1.34 0.67 -0.68 0.34 0 0 Z " fill="#8A73D2" transform="translate(120,204)"/>
<path d="M0 0 C0 3.59857954 -0.95830515 5.09451118 -3 8 C-3.66 8 -4.32 8 -5 8 C-5.28875 8.5775 -5.5775 9.155 -5.875 9.75 C-6.91666667 11.83333333 -7.95833333 13.91666667 -9 16 C-9.33 15.34 -9.66 14.68 -10 14 C-7.7085099 8.44586447 -4.47034438 3.95944788 0 0 Z " fill="#6949C8" transform="translate(31,33)"/>
<path d="M0 0 C-2.2863012 1.36402043 -4.57821749 2.71634274 -6.875 4.0625 C-7.85146484 4.64741211 -7.85146484 4.64741211 -8.84765625 5.24414062 C-10.53065725 6.22444533 -12.26296199 7.11898432 -14 8 C-14.66 7.67 -15.32 7.34 -16 7 C-11.375 3 -11.375 3 -8 3 C-8 2.34 -8 1.68 -8 1 C-4.85571151 -0.9090323 -3.47925125 -1.04523725 0 0 Z " fill="#8D77D5" transform="translate(104,216)"/>
<path d="M0 0 C1.98 0.66 3.96 1.32 6 2 C5.67 3.32 5.34 4.64 5 6 C4.34 6 3.68 6 3 6 C2.67 6.66 2.34 7.32 2 8 C1.87625 7.360625 1.7525 6.72125 1.625 6.0625 C1.315625 5.0415625 1.315625 5.0415625 1 4 C0.34 3.67 -0.32 3.34 -1 3 C-0.67 2.01 -0.34 1.02 0 0 Z " fill="#9D6CF2" transform="translate(66,100)"/>
<path d="M0 0 C1.4835001 0.42257276 2.96176424 0.86356322 4.4375 1.3125 C5.67306641 1.67794922 5.67306641 1.67794922 6.93359375 2.05078125 C7.61550781 2.36402344 8.29742187 2.67726562 9 3 C9.33 3.99 9.66 4.98 10 6 C11.32303717 6.3721042 12.65737935 6.70630173 14 7 C14.33 7.66 14.66 8.32 15 9 C9.26800429 7.53025751 4.66416601 4.55513098 0 1 C0 0.67 0 0.34 0 0 Z " fill="#6043CA" transform="translate(34,153)"/>
<path d="M0 0 C4.01033607 0.61697478 6.68422349 2.76692602 10 5 C11.64619113 5.71573527 13.30728055 6.4025696 15 7 C14.67 7.66 14.34 8.32 14 9 C12.0369164 8.07248802 10.07965973 7.13263547 8.125 6.1875 C6.48917969 5.40439453 6.48917969 5.40439453 4.8203125 4.60546875 C2 3 2 3 0 0 Z " fill="#F3F3F3" transform="translate(262,163)"/>
<path d="M0 0 C2 1 2 1 3.25 3.25 C5.42211648 6.6633259 7.81610915 8.52364045 11 11 C10.67 11.66 10.34 12.32 10 13 C8.70450101 11.90033225 7.41373929 10.79508199 6.125 9.6875 C5.40570312 9.07261719 4.68640625 8.45773438 3.9453125 7.82421875 C2 6 2 6 0 3 C0 2.01 0 1.02 0 0 Z " fill="#F5F5F5" transform="translate(825,156)"/>
<path d="M0 0 C3.99012371 0.55989303 6.5255052 1.75669768 9.8125 4.0625 C10.60269531 4.61035156 11.39289063 5.15820312 12.20703125 5.72265625 C12.79871094 6.14417969 13.39039062 6.56570312 14 7 C13.01 7.495 13.01 7.495 12 8 C9.1796875 6.6015625 9.1796875 6.6015625 5.875 4.625 C4.77929688 3.97789063 3.68359375 3.33078125 2.5546875 2.6640625 C1.71164063 2.11492187 0.86859375 1.56578125 0 1 C0 0.67 0 0.34 0 0 Z " fill="#5F3EC6" transform="translate(105,72)"/>
<path d="M0 0 C4.97209562 1.76429199 9.43438061 4.3939166 14 7 C13.01 7.495 13.01 7.495 12 8 C9.1796875 6.78515625 9.1796875 6.78515625 5.875 5.0625 C4.77929688 4.49660156 3.68359375 3.93070312 2.5546875 3.34765625 C1.71164063 2.90292969 0.86859375 2.45820312 0 2 C0 1.34 0 0.68 0 0 Z " fill="#6748CB" transform="translate(172,86)"/>
<path d="M0 0 C0.33 0.66 0.66 1.32 1 2 C0.34 1.67 -0.32 1.34 -1 1 C-0.67 0.67 -0.34 0.34 0 0 Z M-2 2 C-0.60804085 6.17587745 -2.17676781 8.13474776 -4 12 C-4.66 12 -5.32 12 -6 12 C-5.5205537 7.78087253 -4.83374881 5.20336822 -2 2 Z " fill="#F5F5F5" transform="translate(831,108)"/>
<path d="M0 0 C0 3 0 3 -2.375 5.6875 C-5 8 -5 8 -7 8 C-6.67 6.68 -6.34 5.36 -6 4 C-5.01 4 -4.02 4 -3 4 C-3 3.01 -3 2.02 -3 1 C-2.01 0.67 -1.02 0.34 0 0 Z " fill="#6848D7" transform="translate(206,152)"/>
<path d="M0 0 C4.85963179 0.60745397 8.7405518 2.72758967 13 5 C13 5.66 13 6.32 13 7 C8.1725201 5.58707905 4.2837641 3.57025846 0 1 C0 0.67 0 0.34 0 0 Z " fill="#906BD3" transform="translate(113,138)"/>
<path d="M0 0 C3.12270126 2.51830747 3.94523098 3.7261549 4.75 7.75 C4.8325 8.8225 4.915 9.895 5 11 C4.67 10.01 4.34 9.02 4 8 C3.34 8 2.68 8 2 8 C2 7.01 2 6.02 2 5 C1.34 5 0.68 5 0 5 C0 3.35 0 1.7 0 0 Z " fill="#8C75DE" transform="translate(154,141)"/>
<path d="M0 0 C2.875 0.625 2.875 0.625 6 2 C7.5 4.9375 7.5 4.9375 8 8 C7.01 9.485 7.01 9.485 6 11 C5.7525 9.72125 5.505 8.4425 5.25 7.125 C4.48009414 3.73252682 4.48009414 3.73252682 1.875 1.5 C1.25625 1.335 0.6375 1.17 0 1 C0 0.67 0 0.34 0 0 Z " fill="#6F4EC7" transform="translate(185,118)"/>
<path d="M0 0 C2.39105598 2.14926381 3.63278854 3.99036913 4.75 7 C5.01296875 7.680625 5.2759375 8.36125 5.546875 9.0625 C6 11 6 11 5 14 C2.46690767 9.35796103 0.53484401 5.34844008 0 0 Z " fill="#6547C9" transform="translate(208,111)"/>
<path d="M0 0 C1.13199353 0.9080162 2.25532363 1.82683826 3.375 2.75 C4.00148438 3.26046875 4.62796875 3.7709375 5.2734375 4.296875 C7.08312318 6.08199481 8.00117455 7.67949644 9 10 C8.01 10 7.02 10 6 10 C4.39453125 8.3203125 4.39453125 8.3203125 2.8125 6.125 C2.01779297 5.04605469 2.01779297 5.04605469 1.20703125 3.9453125 C0 2 0 2 0 0 Z " fill="#F1F1F1" transform="translate(466,108)"/>
<path d="M0 0 C3.81684226 1.55500981 6.19195732 4.03595495 9 7 C8.67 7.66 8.34 8.32 8 9 C7.34 8.67 6.68 8.34 6 8 C6 7.34 6 6.68 6 6 C5.01 6 4.02 6 3 6 C2.01 4.02 1.02 2.04 0 0 Z " fill="#8F78D9" transform="translate(145,132)"/>
<path d="M0 0 C3.7910119 1.44950455 7.3874638 3.15172566 11 5 C9.4375 5.75 9.4375 5.75 7 6 C4.49713591 4.86915563 2.32992278 3.47860484 0 2 C0 1.34 0 0.68 0 0 Z " fill="#6F50C9" transform="translate(48,137)"/>
<path d="M0 0 C3.99996286 1.33332095 4.83782337 3.4957827 7 7 C6.67 7.66 6.34 8.32 6 9 C2.91910327 6.22719294 1.31224548 3.93673644 0 0 Z " fill="#F2F2F2" transform="translate(257,119)"/>
<path d="M0 0 C4.455 0.99 4.455 0.99 9 2 C9 2.99 9 3.98 9 5 C4.89198233 3.81323934 3.10551666 3.10551666 0 0 Z " fill="#6848CF" transform="translate(166,107)"/>
<path d="M0 0 C3.53372712 1.96318174 6.24479785 4.04070881 9 7 C8.67 7.99 8.34 8.98 8 10 C7.4225 9.236875 6.845 8.47375 6.25 7.6875 C4.16642802 4.99108421 4.16642802 4.99108421 1.75 3.3125 C1.1725 2.879375 0.595 2.44625 0 2 C0 1.34 0 0.68 0 0 Z " fill="#6A4BCF" transform="translate(198,101)"/>
<path d="M0 0 C0.99 0.99 1.98 1.98 3 3 C2.34 5.31 1.68 7.62 1 10 C0.67 10 0.34 10 0 10 C0 6.7 0 3.4 0 0 Z " fill="#F2F2F2" transform="translate(298,143)"/>
<path d="M0 0 C0.33 1.32 0.66 2.64 1 4 C0.01 4.495 0.01 4.495 -1 5 C-1.66 4.67 -2.32 4.34 -3 4 C-3 4.66 -3 5.32 -3 6 C-3.99 6.33 -4.98 6.66 -6 7 C-4.60667426 3.63279613 -3.0210714 2.0140476 0 0 Z " fill="#6E4BD7" transform="translate(187,141)"/>
<path d="M0 0 C3.91402949 1.26941497 5.79072873 2.51167694 8 6 C4.54074837 4.7508258 1.85306797 3.32472205 -1 1 C-0.67 0.67 -0.34 0.34 0 0 Z " fill="#8C76DC" transform="translate(105,132)"/>
<path d="M0 0 C0.33 0.99 0.66 1.98 1 3 C3.97 3.495 3.97 3.495 7 4 C7 4.33 7 4.66 7 5 C4.69 5 2.38 5 0 5 C-0.5625 3.0625 -0.5625 3.0625 -1 1 C-0.67 0.67 -0.34 0.34 0 0 Z " fill="#EFEFEF" transform="translate(297,106)"/>
</svg>
